<?xml version="1.0" encoding="UTF-8" standalone="no"?>
<svg
   viewBox="0 0 1254 1254"
   width="1254"
   height="1254"
   role="img"
   aria-labelledby="title desc"
   version="1.1"
   id="svg2"
   xmlns="http://www.w3.org/2000/svg"
   xmlns:svg="http://www.w3.org/2000/svg"
   xmlns:rdf="http://www.w3.org/1999/02/22-rdf-syntax-ns#"
   xmlns:cc="http://creativecommons.org/ns#"
   xmlns:dc="http://purl.org/dc/elements/1.1/">
  <defs
     id="defs2" />
  <title
     id="title">NMJ Electric logo</title>
  <desc
     id="desc">White NMJ Electric lettering with gold lightning-bolt accents.</desc>
  <metadata
     id="metadata2">
    <rdf:RDF>
      <cc:Work
         rdf:about="">
        <dc:title>NMJ Electric logo</dc:title>
      </cc:Work>
    </rdf:RDF>
  </metadata>
  <g
     id="layer1"
     style="display:none">
    <g
       fill-rule="evenodd"
       clip-rule="evenodd"
       id="g2"
       transform="matrix(1.1654765,0,0,1.2097632,-106.08463,-210.87545)"
       style="opacity:0.305733">
      <path
         fill="#ffffff"
         d="m 829,727 1,-1 h 33 l 7,3 4,4 3,8 -2,10 -5,5 -8,3 h -32 l -1,-1 z m 126,-20 -1,1 h -4 v 104 h 20 V 708 l -1,-1 z m -146,1 v 104 h 20 v -34 l 1,-1 h 21 l 25,35 h 24 l -6,-7 -21,-30 14,-8 5,-6 4,-9 v -4 l 1,-1 -1,-15 -6,-12 -7,-6 -8,-4 -7,-2 h -8 l -1,-1 h -9 l -1,1 -1,-1 h -37 z m -137,-1 -1,1 1,2 v 16 h 31 l 2,2 v 84 h 20 v -85 l 1,-1 h 32 v -18 l -1,-1 h -75 l -1,1 -2,-1 z m -275,1 v 61 l 1,1 v 10 l -1,1 v 4 l 1,1 v 15 l -1,1 v 7 l 1,3 h 8 l 1,1 h 12 l 1,-1 h 3 l 1,1 h 15 l 1,-1 h 15 l 1,1 h 5 l 1,-1 h 18 v -18 h -62 l -1,-1 v -23 l 2,-2 h 49 v -18 h -50 l -1,-1 v -21 l 2,-2 h 60 v -18 l -3,-1 h -74 l -1,1 z m -126,0 1,2 -1,1 v 97 l 1,1 -1,3 h 55 l 1,1 22,-1 v -18 h -56 l -1,-1 v -3 l -1,-1 v -76 l 1,-1 v -4 l -1,-1 -1,1 h -6 l -1,-1 z m -137,-1 v 105 h 17 l 1,1 h 10 l 1,-1 h 6 l 1,1 46,-1 1,-2 v -15 l -1,-1 h -61 l -1,-1 v -23 l 2,-2 h 49 v -18 h -50 l -1,-1 v -22 l 1,-1 h 61 v -18 l -1,-1 z m 933,-1 -1,1 -10,2 -8,4 -6,4 -11,12 -4,7 -4,12 v 6 l -1,1 1,17 3,10 4,8 7,9 7,6 9,5 9,3 h 4 l 1,1 h 19 l 14,-4 10,-6 9,-10 -14,-12 -9,8 -13,5 h -13 l -10,-4 -11,-10 -3,-5 -3,-10 v -12 l 1,-1 v -4 l 5,-10 9,-9 8,-4 h 3 l 1,-1 h 14 l 12,5 9,8 14,-12 v -1 l -4,-5 -6,-5 -11,-6 -10,-2 -1,-1 z m -493,0 -1,1 h -4 l -6,2 -13,7 -12,13 -6,12 -2,7 v 6 l -1,1 1,18 2,4 v 3 l 7,13 8,9 7,5 11,5 h 3 l 5,2 h 19 l 1,-1 h 4 l 7,-2 8,-4 6,-4 8,-8 -15,-13 -10,9 -10,4 h -14 l -1,-1 h -3 l -9,-5 -8,-8 -4,-8 -2,-7 v -12 l 3,-10 3,-5 9,-9 11,-5 h 15 l 6,2 7,4 7,7 14,-12 v -2 l -8,-8 -12,-7 -7,-2 h -4 l -1,-1 z m 546,-360 h -93 l -1,1 1,1 v 127 l -1,1 v 3 l 1,1 v 59 l -1,1 v 11 l -1,1 -1,7 -7,13 -9,9 -12,7 -14,4 h -6 l -1,1 h -25 l -1,-1 -11,-1 -14,-4 -15,-7 -13,-9 -16,-16 -42,48 -4,6 18,18 9,7 26,14 28,9 15,2 1,1 h 7 l 1,1 h 12 l 1,1 40,-1 1,-1 h 8 l 1,-1 13,-1 1,-1 h 4 l 1,-1 h 4 l 1,-1 11,-2 4,-2 9,-2 15,-7 h 2 l 14,-8 11,-8 10,-10 7,-10 6,-13 v -3 l 3,-9 v -5 l 1,-1 v -11 l 1,-1 z M 134,657 h 82 l 1,-1 V 471 l 1,-1 160,187 h 79 V 430 l 1,-1 -1,-1 1,-1 h 5 l 4,4 145,193 149,-198 34,-77 v -3 h -82 l -4,2 -96,128 -2,-1 -28,-39 -68,-89 -144,-1 -1,1 1,52 -2,115 -142,-166 -6,-2 h -87 z"
         id="path1" />
      <path
         fill="#f7b719"
         d="m 673,864 v 7 h 447 v -7 z m -539,0 v 7 h 445 l 1,-3 v -4 z m 512,-29 h -24 l -2,4 v 2 l -14,32 h 14 l 1,1 -7,31 -2,4 2,-1 33,-44 h -16 l -1,-1 4,-8 12,-18 z M 903,346 H 797 l -2,4 v 2 l -13,28 -3,9 -5,9 v 2 l -7,14 v 2 l -4,7 v 2 l -5,9 v 2 l -5,9 v 2 l -5,9 v 2 l -6,11 v 2 l -25,53 1,2 h 31 l 1,-1 h 4 l 1,1 h 23 l 1,-1 h 5 l 2,1 1,-1 2,2 -1,1 -5,23 -2,4 -3,15 -2,4 -1,7 -2,4 -2,11 -2,4 -2,11 -2,4 -2,11 -5,15 -2,11 -5,15 v 3 l -1,1 1,1 86,-105 3,-5 42,-52 20,-27 8,-9 -1,-2 h -79 l -1,-1 53,-88 2,-5 5,-7 z"
         id="path2" />
    </g>
  </g>
  <g
     id="layer2">
    <path
       style="font-size:192px;font-family:'League Spartan';-inkscape-font-specification:'League Spartan, Normal';white-space:pre;display:none;fill:#000000;fill-opacity:1;stroke:none;stroke-width:3.04902;stroke-opacity:1"
       d="m 1197.8019,451.92058 c 0,22.28516 -4.6944,43.00147 -15.4523,58.06864 -7.8293,10.96555 -16.3559,20.9875 -24.1923,29.31265 -10.778,11.45026 -31.9426,25.68792 -46.8015,30.80579 -17.7703,6.12063 -40.4551,11.64669 -60.6841,11.62492 l -58.84266,-0.0633 c -15.85317,-0.0171 -41.8354,-0.8213 -56.45829,-6.71588 -11.13699,-4.48938 -23.11574,-11.0082 -34.05854,-18.839 -8.11973,-5.40247 -26.38978,-22.23503 -33.16279,-31.09154 l 55.30684,-64.47975 c 8.23019,7.56491 15.86807,17.56186 27.30971,26.01573 6.9475,5.1333 19.93753,10.62473 28.10262,13.48611 3.40408,1.19292 6.45884,2.17685 9.35239,2.95833 8.43565,2.27827 22.75162,2.98018 31.50812,2.73919 0.9188,-0.0253 1.855,-0.0696 2.8184,-0.13837 9.736,-0.69463 25.159,-5.02638 34.2944,-8.50991 9.6652,-3.68556 19.5065,-9.93232 26.4422,-23.84857 6.4102,-24.19526 7.5756,-40.97099 7.5756,-54.98363 V 208.14973 l 106.9422,-0.0663 z"
       id="path4" />
    <path
       id="text2"
       style="font-size:192px;font-family:'League Spartan';-inkscape-font-specification:'League Spartan, Normal';white-space:pre;display:none;fill:#000000;fill-opacity:1;stroke:none;stroke-width:3.04902;stroke-opacity:1"
       d="m 50.936679,208.02768 -0.181354,373.77068 96.608505,-0.0658 0.62445,-224.01969 185.13052,224.01969 h 93.42026 L 426.98047,360.18748 607.18699,544.01677 779.2738,304.19834 821.94422,208.05301 H 724.98414 L 608.35246,364.97183 495.02961,208.22725 H 325.14258 L 323.97656,410.94336 159.42014,208.13309 Z" />
    <path
       style="opacity:1;fill:#f7b719;fill-opacity:1;stroke:none"
       d="M 945.20699,208.46021 861.98133,356.2573 a 1.182949,1.182949 59.987425 0 0 1.01856,1.76332 l 93.00022,0.95876 a 0.9993431,0.9993431 64.040663 0 1 0.78263,1.60752 L 768.21726,606.4131 a 0.42588032,0.42588032 25.469642 0 1 -0.75211,-0.35826 l 43.0697,-180.10968 a 1.539402,1.539402 51.03413 0 0 -1.53427,-1.89698 l -79.00116,1.90364 a 1.2639778,1.2639778 56.327215 0 1 -1.18484,-1.77842 l 96.22676,-215.77619 a 3.077662,3.077662 147.05236 0 1 2.81458,-1.82416 l 116.3324,0.14202 a 1.1707143,1.1707143 59.727069 0 1 1.01867,1.74514 z"
       id="path6"
       transform="translate(1.8348624)" />
    <path
       style="display:none;opacity:1;fill:#f7b719;fill-opacity:1"
       d="m 945.01893,208.74284 -83.03786,147.51432 a 1.1831475,1.1831475 59.983211 0 0 1.01882,1.76346 l 93.00022,0.95876 a 0.9993431,0.9993431 64.040663 0 1 0.78263,1.60752 L 768.21726,606.4131 a 0.42588032,0.42588032 25.469642 0 1 -0.75211,-0.35826 l 43.0697,-180.10968 a 1.539402,1.539402 51.03413 0 0 -1.53427,-1.89698 l -79.00116,1.90364 a 1.2698881,1.2698881 56.206382 0 1 -1.19255,-1.78184 l 95.38626,-216.33996 a 3.0400592,3.0400592 147.13331 0 1 2.8068,-1.81349 l 117.00014,0.96694 a 1.180389,1.180389 59.924637 0 1 1.01886,1.75937 z"
       id="path8"
       transform="matrix(0.22361374,0,0,0.22361374,435.66564,754.06495)" />
    <path
       d="m 50.357051,774.47382 v -134.4 H 151.92505 v 24.96 H 81.269051 v 84.48 h 73.151999 v 24.96 z m 28.608,-56.064 v -24.192 h 64.703999 v 24.192 z m 128.223909,56.064 v -134.4 h 31.104 v 109.056 h 67.392 v 25.344 z m 143.96802,0 v -134.4 h 101.568 v 24.96 h -70.656 v 84.48 h 73.152 v 24.96 z m 28.608,-56.064 v -24.192 h 64.704 v 24.192 z m 192.54391,58.368 q -15.552,0 -28.992,-4.992 -13.248,-5.184 -23.04,-14.592 -9.792,-9.408 -15.36,-22.08 -5.376,-12.672 -5.376,-27.84 0,-15.168 5.376,-27.84 5.568,-12.672 15.36,-22.08 9.984,-9.408 23.232,-14.4 13.248,-5.184 28.992,-5.184 17.472,0 31.488,6.144 14.208,5.952 23.808,17.664 l -19.968,18.432 q -6.912,-7.872 -15.36,-11.712 -8.448,-4.032 -18.432,-4.032 -9.408,0 -17.28,3.072 -7.872,3.072 -13.632,8.832 -5.76,5.76 -9.024,13.632 -3.072,7.872 -3.072,17.472 0,9.6 3.072,17.472 3.264,7.872 9.024,13.632 5.76,5.76 13.632,8.832 7.872,3.072 17.28,3.072 9.984,0 18.432,-3.84 8.448,-4.032 15.36,-12.096 l 19.968,18.432 q -9.6,11.712 -23.808,17.856 -14.016,6.144 -31.68,6.144 z m 128.06284,-2.304 v -109.056 h -43.008 v -25.344 h 117.12 v 25.344 h -43.008 v 109.056 z m 118.81601,0 v -134.4 h 57.408 q 28.032,0 43.584,13.056 15.552,12.864 15.552,35.712 0,14.976 -7.104,25.92 -7.104,10.752 -20.16,16.512 -13.056,5.76 -31.104,5.76 h -40.896 l 13.824,-13.632 v 51.072 z m 85.44,0 -33.6,-48.768 h 33.216 l 33.984,48.768 z m -54.336,-47.616 -13.824,-14.592 h 39.168 q 14.4,0 21.504,-6.144 7.104,-6.336 7.104,-17.28 0,-11.136 -7.104,-17.28 -7.104,-6.144 -21.504,-6.144 h -39.168 l 13.824,-14.784 z m 138.01612,47.616 v -134.4 h 31.10404 v 134.4 z m 155.29584,2.304 q -15.552,0 -28.992,-4.992 -13.248,-5.184 -23.04,-14.592 -9.792,-9.408 -15.36,-22.08 -5.376,-12.672 -5.376,-27.84 0,-15.168 5.376,-27.84 5.568,-12.672 15.36,-22.08 9.984,-9.408 23.232,-14.4 13.248,-5.184 28.992,-5.184 17.472,0 31.488,6.144 14.208,5.952 23.808,17.664 l -19.968,18.432 q -6.912,-7.872 -15.36,-11.712 -8.448,-4.032 -18.432,-4.032 -9.408,0 -17.28,3.072 -7.872,3.072 -13.632,8.832 -5.76,5.76 -9.024,13.632 -3.072,7.872 -3.072,17.472 0,9.6 3.072,17.472 3.264,7.872 9.024,13.632 5.76,5.76 13.632,8.832 7.872,3.072 17.28,3.072 9.984,0 18.432,-3.84 8.448,-4.032 15.36,-12.096 l 19.968,18.432 q -9.6,11.712 -23.808,17.856 -14.016,6.144 -31.68,6.144 z"
       id="text9"
       style="font-size:192px;font-family:Montserrat;-inkscape-font-specification:'Montserrat, @wght=700';font-variation-settings:'wght' 700;letter-spacing:28px;display:none;fill:#000000;fill-opacity:1;stroke:none"
       aria-label="ELECTRIC" />
    <rect
       style="font-variation-settings:'wght' 700;display:none;fill:#f7b719;fill-opacity:1;stroke:none"
       id="rect1"
       width="518.63702"
       height="8.4683428"
       x="49.493591"
       y="834.35992" />
    <rect
       style="font-variation-settings:'wght' 700;display:none;fill:#f7b719;fill-opacity:1;stroke:none"
       id="rect3"
       width="518.63702"
       height="8.4683428"
       x="680.65686"
       y="834.35992" />
  </g>
</svg>
