<?xml version="1.0" encoding="UTF-8" standalone="no"?>
<svg
   viewBox="0 0 1149.934 397.87271"
   width="1149.934"
   height="397.87271"
   role="img"
   aria-labelledby="title desc"
   version="1.1"
   id="svg2"
   xml:space="preserve"
   xmlns="http://www.w3.org/2000/svg"
   xmlns:svg="http://www.w3.org/2000/svg"
   xmlns:rdf="http://www.w3.org/1999/02/22-rdf-syntax-ns#"
   xmlns:cc="http://creativecommons.org/ns#"
   xmlns:dc="http://purl.org/dc/elements/1.1/"><defs
     id="defs2" /><title
     id="title">NMJ Electric logo</title><desc
     id="desc">White NMJ Electric lettering with gold lightning-bolt accents.</desc><metadata
     id="metadata2"><rdf:RDF><cc:Work
         rdf:about=""><dc:title>NMJ Electric logo</dc:title></cc:Work></rdf:RDF></metadata><g
     id="layer2"
     transform="translate(-49.315068,-206.5767)"><path
       style="font-size:192px;font-family:'League Spartan';-inkscape-font-specification:'League Spartan, Normal';white-space:pre;display:inline;fill:#ffffff;fill-opacity:1;stroke:none;stroke-width:3.04902;stroke-opacity:1"
       d="m 1190.7814,484.34424 c -5.7882,16.07841 -14.0367,31.89389 -20.309,40.67862 -15.9668,22.36267 -56.3782,58.31047 -155.9186,58.31047 -99.54045,0 -139.63137,-49.45397 -146.40438,-58.31048 l 68.89546,-69.16088 c 18.37676,15.2593 37.7109,30.18115 82.13562,29.85847 22.2124,-0.16134 35.8334,-4.62805 50.5305,-10.52066 1.0348,-0.41487 2.0749,-0.83682 3.1144,-1.26328 15.5631,-6.38458 27.3558,-27.09494 27.3558,-43.99665 V 206.6265 h 97.6207 v 211.96818 c 0,18.40539 -0.8146,48.51055 -7.0205,65.74956 z"
       id="path4"
       transform="translate(1.4471)" /><path
       style="font-size:192px;font-family:'League Spartan';-inkscape-font-specification:'League Spartan, Normal';white-space:pre;display:inline;fill:#ffffff;fill-opacity:1;stroke:none;stroke-width:3.04902;stroke-opacity:1"
       d="M 421.60992,206.6265 H 323.98917 V 412.1368 L 157.21358,206.6265 H 49.315068 v 376.70683 h 97.620752 l 0.093,-229.7288 186.42938,229.7288 h 88.15172"
       id="path3" /><path
       style="font-size:192px;font-family:'League Spartan';-inkscape-font-specification:'League Spartan, Normal';white-space:pre;display:inline;fill:#ffffff;fill-opacity:1;stroke:none;stroke-width:3.04902;stroke-opacity:1"
       d="m 455.23412,583.33333 h 97.62074 V 377.86312 L 637.17574,482.57127 759.50929,331.82496 815.3564,206.6265 h -84.71997 l -93.46069,115.16754 -93.45323,-115.1583 -88.48839,-0.009"
       id="text2" /><path
       style="opacity:1;fill:#f7b719;fill-opacity:1;stroke:none"
       d="m 943.735,211.07426 -80.28168,142.56899 a 2.9573725,2.9573725 59.987425 0 0 2.54641,4.40829 l 87.00054,0.89692 a 2.4983577,2.4983577 64.040663 0 1 1.95657,4.0188 L 770.04316,604.03274 a 1.0647008,1.0647008 25.469642 0 1 -1.88029,-0.89563 l 41.67426,-174.27422 a 3.8485051,3.8485051 51.03413 0 0 -3.83568,-4.74244 l -73.0029,1.7591 a 3.1599444,3.1599444 56.327215 0 1 -2.96209,-4.44604 l 93.783,-210.29641 a 7.694155,7.694155 147.05236 0 1 7.03646,-4.56039 l 110.3324,0.1347 a 2.9267857,2.9267857 59.727069 0 1 2.54668,4.36285 z"
       id="path6"
       transform="translate(-7.9241717)" /></g></svg>
