<?xml version="1.0" encoding="UTF-8" standalone="no"?>
<!-- Created with Inkscape (http://www.inkscape.org/) -->

<svg
   width="512"
   height="512"
   viewBox="0 0 512 512"
   version="1.1"
   id="svg1"
   xml:space="preserve"
   xmlns="http://www.w3.org/2000/svg"
   xmlns:svg="http://www.w3.org/2000/svg"><defs
     id="defs1" /><g
     id="layer1"
     style="fill:#000000;fill-opacity:1;stroke:none;stroke-opacity:1"><rect
       style="font-variation-settings:'wght' 800;opacity:1;fill:#000000;fill-opacity:1;stroke:none;stroke-opacity:1"
       id="rect2"
       width="516.44116"
       height="515.8067"
       x="-1.2688972"
       y="-1.2688972" /></g><g
     id="layer2"
     transform="translate(-565.48402,-147.07316)"><path
       style="opacity:1;fill:#f7b719;fill-opacity:1;stroke:none"
       d="m 943.735,211.07426 -80.28168,142.56899 a 2.9573725,2.9573725 59.987425 0 0 2.54641,4.40829 l 87.00054,0.89692 a 2.4983577,2.4983577 64.040663 0 1 1.95657,4.0188 L 770.04316,604.03274 a 1.0647008,1.0647008 25.469642 0 1 -1.88029,-0.89563 l 41.67426,-174.27422 a 3.8485051,3.8485051 51.03413 0 0 -3.83568,-4.74244 l -73.0029,1.7591 a 3.1599444,3.1599444 56.327215 0 1 -2.96209,-4.44604 l 93.783,-210.29641 a 7.694155,7.694155 147.05236 0 1 7.03646,-4.56039 l 110.3324,0.1347 a 2.9267857,2.9267857 59.727069 0 1 2.54668,4.36285 z"
       id="path6"
       transform="translate(-7.9241717)" /><path
       style="display:none;opacity:1;fill:#f7b719;fill-opacity:1"
       d="m 939.41898,218.69098 -71.83796,127.61804 a 7.9365484,7.9365484 59.983211 0 0 6.83426,11.82928 l 70.16944,0.7234 a 6.703589,6.703589 64.040663 0 1 5.24988,10.78325 l -174.6692,227.7101 a 2.8568033,2.8568033 25.469642 0 1 -5.0452,-2.40316 l 37.7596,-157.90378 a 10.326302,10.326302 51.03413 0 0 -10.2919,-12.72493 l -56.1758,1.35364 a 8.518404,8.518404 56.206382 0 1 -7.99961,-11.95256 l 86.17502,-195.44852 a 20.392704,20.392704 147.13331 0 1 18.82802,-12.16487 l 94.16894,0.77826 a 7.9180443,7.9180443 59.924637 0 1 6.83451,11.80185 z"
       id="path8"
       transform="matrix(0.22361374,0,0,0.22361374,435.66564,754.06495)" /><path
       d="m 50.357051,774.47382 v -134.4 H 151.92505 v 24.96 H 81.269051 v 84.48 h 73.151999 v 24.96 z m 28.608,-56.064 v -24.192 h 64.703999 v 24.192 z m 128.223909,56.064 v -134.4 h 31.104 v 109.056 h 67.392 v 25.344 z m 143.96802,0 v -134.4 h 101.568 v 24.96 h -70.656 v 84.48 h 73.152 v 24.96 z m 28.608,-56.064 v -24.192 h 64.704 v 24.192 z m 192.54391,58.368 q -15.552,0 -28.992,-4.992 -13.248,-5.184 -23.04,-14.592 -9.792,-9.408 -15.36,-22.08 -5.376,-12.672 -5.376,-27.84 0,-15.168 5.376,-27.84 5.568,-12.672 15.36,-22.08 9.984,-9.408 23.232,-14.4 13.248,-5.184 28.992,-5.184 17.472,0 31.488,6.144 14.208,5.952 23.808,17.664 l -19.968,18.432 q -6.912,-7.872 -15.36,-11.712 -8.448,-4.032 -18.432,-4.032 -9.408,0 -17.28,3.072 -7.872,3.072 -13.632,8.832 -5.76,5.76 -9.024,13.632 -3.072,7.872 -3.072,17.472 0,9.6 3.072,17.472 3.264,7.872 9.024,13.632 5.76,5.76 13.632,8.832 7.872,3.072 17.28,3.072 9.984,0 18.432,-3.84 8.448,-4.032 15.36,-12.096 l 19.968,18.432 q -9.6,11.712 -23.808,17.856 -14.016,6.144 -31.68,6.144 z m 128.06284,-2.304 v -109.056 h -43.008 v -25.344 h 117.12 v 25.344 h -43.008 v 109.056 z m 118.81601,0 v -134.4 h 57.408 q 28.032,0 43.584,13.056 15.552,12.864 15.552,35.712 0,14.976 -7.104,25.92 -7.104,10.752 -20.16,16.512 -13.056,5.76 -31.104,5.76 h -40.896 l 13.824,-13.632 v 51.072 z m 85.44,0 -33.6,-48.768 h 33.216 l 33.984,48.768 z m -54.336,-47.616 -13.824,-14.592 h 39.168 q 14.4,0 21.504,-6.144 7.104,-6.336 7.104,-17.28 0,-11.136 -7.104,-17.28 -7.104,-6.144 -21.504,-6.144 h -39.168 l 13.824,-14.784 z m 138.01612,47.616 v -134.4 h 31.10404 v 134.4 z m 155.29584,2.304 q -15.552,0 -28.992,-4.992 -13.248,-5.184 -23.04,-14.592 -9.792,-9.408 -15.36,-22.08 -5.376,-12.672 -5.376,-27.84 0,-15.168 5.376,-27.84 5.568,-12.672 15.36,-22.08 9.984,-9.408 23.232,-14.4 13.248,-5.184 28.992,-5.184 17.472,0 31.488,6.144 14.208,5.952 23.808,17.664 l -19.968,18.432 q -6.912,-7.872 -15.36,-11.712 -8.448,-4.032 -18.432,-4.032 -9.408,0 -17.28,3.072 -7.872,3.072 -13.632,8.832 -5.76,5.76 -9.024,13.632 -3.072,7.872 -3.072,17.472 0,9.6 3.072,17.472 3.264,7.872 9.024,13.632 5.76,5.76 13.632,8.832 7.872,3.072 17.28,3.072 9.984,0 18.432,-3.84 8.448,-4.032 15.36,-12.096 l 19.968,18.432 q -9.6,11.712 -23.808,17.856 -14.016,6.144 -31.68,6.144 z"
       id="text9"
       style="font-size:192px;font-family:Montserrat;-inkscape-font-specification:'Montserrat, @wght=700';font-variation-settings:'wght' 700;letter-spacing:28px;display:none;fill:#000000;fill-opacity:1;stroke:none"
       aria-label="ELECTRIC" /><rect
       style="font-variation-settings:'wght' 700;display:none;fill:#f7b719;fill-opacity:1;stroke:none"
       id="rect1"
       width="518.63702"
       height="8.4683428"
       x="49.493591"
       y="834.35992" /><rect
       style="font-variation-settings:'wght' 700;display:none;fill:#f7b719;fill-opacity:1;stroke:none"
       id="rect3"
       width="518.63702"
       height="8.4683428"
       x="680.65686"
       y="834.35992" /></g></svg>
